<svg id="visual" viewBox="0 0 3072 540" width="3072" height="540" xmlns="http://www.w3.org/2000/svg" xmlns:xlink="http://www.w3.org/1999/xlink" version="1.1">
<rect x="0" y="0" width="3072" height="540" fill="#3f2305"></rect>

<path d="M0 470L102.3 471.7C204.7 473.3 409.3 476.7 614.2 467.5C819 458.3 1024 436.7 1228.8 424C1433.7 411.3 1638.3 407.7 1843.2 409.7C2048 411.7 2253 419.3 2457.8 423.7C2662.7 428 2867.3 429 2969.7 429.5L3072 430L3072 541L2969.7 541C2867.3 541 2662.7 541 2457.8 541C2253 541 2048 541 1843.2 541C1638.3 541 1433.7 541 1228.8 541C1024 541 819 541 614.2 541C409.3 541 204.7 541 102.3 541L0 541Z" fill="none" stroke-linecap="round" stroke-linejoin="miter"></path></svg>